PathFileType	3	(X/Y/Z)	D:\minhoCalibration\240510\subject3_KPNP\preferred\preferred17.trc
DataRate	CameraRate	NumFrames	NumMarkers	Units	OrigDataRate	OrigDataStartFrame	OrigNumFrames
200.0	200.0	15	10	mm	200.0	261	120	
Frame#	Time	Left_Ankle_Outer1			Left_Ankle_Inner1			Left_Knee_Outer1			Left_Knee_Inner1			Left_Wrist1			Right_Wrist1			Right_Knee_Inner1			Right_Knee_Outer1			Right_Ankle_Inner1			Right_Ankle_Outer1			
		X1	Y1	Z1	X2	Y2	Z2	X3	Y3	Z3	X4	Y4	Z4	X5	Y5	Z5	X6	Y6	Z6	X7	Y7	Z7	X8	Y8	Z8	X9	Y9	Z9	X10	Y10	Z10	
261	1.295	-313.72714	107.99458	-528.60071	-368.96347	127.22044	-524.07971	-202.91377	530.85358	-416.3692	-295.20221	536.80768	-376.4902	-132.72264	935.52228	-572.5899	-484.61349	1057.8387	-492.29388	-369.92822	911.83856	-114.84269	-471.65317	955.34949	-131.11662	-422.02179	744.88745	267.88452	-520.50873	777.42303	258.01526
262	1.3	-312.35953	105.9617	-529.57837	-367.35495	125.20395	-526.27234	-203.67444	530.30121	-416.64108	-297.67828	535.88153	-379.63889	-131.73018	936.27728	-569.49023	-487.21902	1051.4576	-494.58664	-373.59726	906.46094	-116.41995	-476.16489	948.50757	-133.03362	-429.88913	722.3681	258.21158	-529.15503	752.88733	248.3279
263	1.305	-310.76782	103.86211	-530.96924	-366.04602	122.97659	-528.60065	-205.09639	529.26501	-417.01056	-300.56964	534.38525	-382.52594	-130.90479	936.62091	-566.54871	-489.13324	1045.0641	-496.98721	-377.50317	901.18683	-117.90269	-479.99756	940.79449	-135.78989	-437.51489	698.49597	248.65874	-537.2677	727.90491	237.43051
264	1.31	-309.36664	101.41112	-532.12341	-364.6424	120.59844	-530.97882	-206.52243	527.89948	-417.60962	-302.80399	533.03369	-385.80096	-130.04591	936.57391	-563.79578	-490.36432	1038.9509	-499.53571	-381.47824	895.84399	-119.48281	-485.12784	932.89215	-138.50562	-445.35745	675.37396	237.57884	-545.10974	702.82562	225.27449
265	1.315	-308.284	99.289452	-533.3255	-363.43219	118.15043	-533.30481	-208.11177	526.39148	-418.36218	-305.32892	531.14178	-389.17639	-129.28416	936.13904	-561.23224	-490.84543	1032.7324	-502.15762	-385.59848	890.21881	-120.88171	-489.79205	924.36945	-141.78555	-452.79367	651.98273	225.13701	-553.07471	677.31671	211.84415
266	1.32	-307.9834	96.632416	-533.99579	-362.48401	115.58219	-535.52557	-209.83057	524.61218	-419.29089	-307.57663	528.98932	-392.9136	-128.65948	935.2113	-558.77185	-490.87735	1027.3445	-504.86774	-389.90439	884.07263	-122.3149	-494.90082	914.91888	-145.26642	-460.08356	628.0249	212.18033	-560.24371	651.35706	197.53374
267	1.325	-307.04932	94.49482	-535.26178	-361.90323	113.13032	-537.54803	-211.44327	522.742	-420.47919	-310.13669	526.62604	-396.42688	-128.11755	934.01648	-556.54614	-490.77136	1022.5359	-507.61469	-394.33316	877.11694	-123.62405	-499.96274	905.18097	-149.12906	-467.60358	604.61047	197.85374	-567.25787	626.49341	182.05801
268	1.33	-307.02792	92.411179	-536.1806	-361.78268	110.64294	-538.99072	-213.12605	520.62335	-421.64038	-312.2067	524.22876	-400.3692	-127.50323	932.57892	-554.35474	-490.84088	1018.7263	-510.3309	-398.85446	869.0874	-125.05058	-504.83258	895.65167	-152.73921	-475.47473	582.04712	182.17133	-574.04742	601.63257	165.07861
269	1.335	-307.87234	90.275124	-536.80804	-362.18021	108.67215	-540.54565	-214.72913	518.43158	-422.8335	-314.87433	521.44769	-403.96582	-127.00267	930.85272	-552.25452	-491.33066	1015.7502	-512.93518	-403.37949	860.22571	-126.6628	-510.27597	885.83875	-156.80011	-482.20013	557.74573	166.22324	-582.05688	577.29639	147.3317
270	1.34	-308.46124	88.704941	-537.66064	-363.07129	106.6827	-541.69647	-216.40413	516.21442	-424.11398	-316.88858	519.474	-407.13437	-126.43035	928.9115	-550.28271	-492.11414	1012.9547	-515.4231	-407.74075	850.78522	-128.43166	-514.61572	875.99011	-161.69649	-489.28467	534.12854	148.6795	-588.79797	553.52441	128.46535
271	1.345	-309.73294	87.273155	-538.46106	-364.49057	104.92204	-542.74115	-217.84433	514.16162	-425.19705	-319.4834	517.20428	-410.08194	-126.38201	926.76288	-548.42572	-492.84418	1010.3556	-517.87579	-411.9631	840.71979	-130.55331	-519.15155	866.34351	-165.87225	-496.41068	510.68704	129.98412	-594.90033	529.88531	108.14945
272	1.35	-311.59634	85.632706	-539.00763	-366.18378	103.25415	-543.66766	-219.60149	512.10345	-426.07074	-320.97202	515.32465	-412.95001	-126.42889	924.35236	-546.67792	-493.34726	1007.5277	-520.70526	-416.22952	830.26202	-132.99986	-522.81274	856.61798	-170.19827	-502.77966	487.86429	110.00253	-601.32495	507.35141	87.265747
273	1.355	-313.47128	84.42305	-539.7713	-368.17572	101.54832	-544.24603	-221.43921	510.3157	-426.75714	-322.86719	513.62067	-415.22672	-126.54164	921.84015	-545.15686	-493.68375	1004.8588	-523.51904	-420.35983	819.5722	-135.81105	-526.4245	847.466	-173.72772	-509.03506	465.38254	89.259285	-607.37585	484.79907	65.199013
274	1.36	-315.50171	83.037399	-540.33984	-370.34653	99.837349	-544.91077	-223.33595	508.78	-427.41324	-324.61584	512.55658	-416.54385	-126.35757	919.41296	-543.89453	-493.95569	1002.1348	-526.36615	-424.50391	808.47412	-138.98509	-529.72015	837.78369	-177.50677	-514.78973	443.39352	67.252457	-612.75226	464.03445	41.652939
275	1.365	-317.71924	81.642082	-540.94159	-372.42227	98.153061	-545.58173	-225.03569	507.66672	-428.1546	-326.22421	511.50983	-417.81256	-127.09732	916.62982	-542.33795	-494.20245	999.23102	-529.19739	-428.55362	797.16058	-142.55586	-532.73865	827.96954	-181.53491	-519.9588	422.41052	44.489605	-617.38062	443.22592	17.638449
